<svg width="0" height="0" class="hidden">
    <symbol xmlns="http://www.w3.org/2000/svg" viewBox="0 0 537.18 537.18" id="header-email">
        <path d="M266.7 287.513L514.92 86.927c-7.14-5.046-15.96-7.569-25.62-7.569H44.1c-9.66 0-18.48 2.523-25.62 7.569L266.7 287.513zm51.24-19.764l210 169.468c5.46-7.569 9.24-16.821 9.24-26.493V124.773c0-10.092-4.2-18.923-9.24-26.493l-210 169.469zM7.56 98.281C2.1 105.85 0 115.102 0 124.773v285.951c0 10.092 2.1 18.923 7.56 26.493l209.16-169.468L7.56 98.281z"></path>
        <path d="M304.5 278.682l-32.34 26.493c-1.68 1.262-3.36 1.682-5.46 1.682s-3.78-.421-5.46-1.682l-32.34-26.493-210.42 170.73c7.14 5.046 15.96 8.41 25.62 8.41h445.2c9.66 0 18.48-3.364 25.62-8.41L304.5 278.682z"></path>
    </symbol>
    <symbol xmlns="http://www.w3.org/2000/svg" viewBox="0 0 401.998 401.998" id="header-phone">
        <path d="M401.129 311.475c-1.137-3.426-8.371-8.473-21.697-15.129-3.61-2.098-8.754-4.949-15.41-8.566a1437.412 1437.412 0 01-18.13-9.996 605.612 605.612 0 01-15.276-8.846c-.76-.571-3.139-2.234-7.136-5-4.001-2.758-7.375-4.805-10.14-6.14-2.759-1.327-5.473-1.995-8.138-1.995-3.806 0-8.56 2.714-14.268 8.135a139.01 139.01 0 00-15.7 17.706c-4.757 6.379-9.802 12.275-15.126 17.7-5.332 5.427-9.713 8.138-13.135 8.138-1.718 0-3.86-.479-6.427-1.424-2.566-.951-4.518-1.766-5.858-2.423-1.328-.671-3.607-1.999-6.845-4.004-3.244-1.999-5.048-3.094-5.428-3.285-26.075-14.469-48.438-31.029-67.093-49.676-18.649-18.658-35.211-41.019-49.676-67.097-.19-.381-1.287-2.19-3.284-5.424-2-3.237-3.333-5.518-3.999-6.854-.666-1.331-1.475-3.283-2.425-5.852s-1.427-4.709-1.427-6.424c0-3.424 2.713-7.804 8.138-13.134 5.424-5.327 11.326-10.373 17.7-15.128a138.95 138.95 0 0017.701-15.699c5.424-5.711 8.136-10.467 8.136-14.273 0-2.663-.666-5.378-1.997-8.137-1.332-2.765-3.378-6.139-6.139-10.138-2.762-3.997-4.427-6.374-4.999-7.139a627.13 627.13 0 01-8.848-15.271 1441.4 1441.4 0 01-9.995-18.131c-3.615-6.658-6.468-11.799-8.564-15.415C98.986 9.233 93.943 1.997 90.516.859 89.183.288 87.183 0 84.521 0c-5.142 0-11.85.95-20.129 2.856-8.282 1.903-14.799 3.899-19.558 5.996-9.517 3.995-19.604 15.605-30.264 34.826C4.863 61.566.01 79.271.01 96.78c0 5.135.333 10.131.999 14.989.666 4.853 1.856 10.326 3.571 16.418 1.712 6.09 3.093 10.614 4.137 13.56 1.045 2.948 2.996 8.229 5.852 15.845 2.852 7.614 4.567 12.275 5.138 13.988 6.661 18.654 14.56 35.307 23.695 49.964 15.03 24.362 35.541 49.539 61.521 75.521 25.981 25.98 51.153 46.49 75.517 61.526 14.655 9.134 31.314 17.032 49.965 23.698 1.714.568 6.375 2.279 13.986 5.141 7.614 2.854 12.897 4.805 15.845 5.852 2.949 1.048 7.474 2.43 13.559 4.145 6.098 1.715 11.566 2.905 16.419 3.576 4.856.657 9.853.996 14.989.996 17.508 0 35.214-4.856 53.105-14.562 19.219-10.656 30.826-20.745 34.823-30.269 2.102-4.754 4.093-11.273 5.996-19.555 1.909-8.278 2.857-14.985 2.857-20.126.006-2.673-.281-4.668-.855-6.012z"></path>
    </symbol>
    <symbol xmlns="http://www.w3.org/2000/svg" viewBox="0 0 459.529 459.529" id="cart">
        <path d="M17 55.231h48.733l69.417 251.033c1.983 7.367 8.783 12.467 16.433 12.467h213.35c6.8 0 12.75-3.967 15.583-10.2l77.633-178.5c2.267-5.383 1.7-11.333-1.417-16.15-3.117-4.817-8.5-7.65-14.167-7.65H206.833c-9.35 0-17 7.65-17 17s7.65 17 17 17H416.5l-62.9 144.5H164.333L94.917 33.698c-1.983-7.367-8.783-12.467-16.433-12.467H17c-9.35 0-17 7.65-17 17s7.65 17 17 17zm118.433 383.067c21.25 0 38.533-17.283 38.533-38.533s-17.283-38.533-38.533-38.533S96.9 378.514 96.9 399.764s17.283 38.534 38.533 38.534zm240.834 0h2.833c10.2-.85 19.55-5.383 26.35-13.317 6.8-7.65 9.917-17.567 9.35-28.05-1.417-20.967-19.833-37.117-41.083-35.7-21.25 1.417-37.117 20.117-35.7 41.083 1.416 20.117 18.133 35.984 38.25 35.984z"></path>
    </symbol>
    <symbol xmlns="http://www.w3.org/2000/svg" viewBox="0 0 25.477 25.477" id="giftbox">
        <path d="M7.399 8.527c-.138 0-.268.01-.4.018l.996 16.932h1.666L9.002 8.664a11.698 11.698 0 00-1.603-.137zm8.931 16.95h1.666l1-17h-2zM13.107 8.526l-.13.059-.027.013-.61.222a3.78 3.78 0 01-.837.084l.243 16.573h2.5l.246-16.818c-.174.014-.355.033-.508.033-.258-.001-.597-.022-.877-.166z"></path>
        <path d="M20.716 6.415c-2.638-.462-4.677 1.296-6.685 1.267.621-.35 1.328-1.127 1.881-2.144.889-1.631 1.047-3.258.354-3.635-.606-.331-1.666.41-2.517 1.695-.055-.164-.104-.327-.172-.492C12.654.91 10.848-.425 9.542.124c-1.304.548-1.614 2.772-.691 4.969.47 1.117 1.168 2.006 1.912 2.543-2.577-1.053-4.951-3.907-8.173.122l.438 2.375c3.188-3.969 7.344-.909 9.594-1.935.227-.103.387-.17.467-.221.041 0 .074.004.116.002.604.716 4.229-.659 6.67-.031 1.207.31.857 2.559.652 3.747l1.875-1.281c1.282-2.28-.222-3.743-1.686-3.999zM12.66 7.537a1.012 1.012 0 01-.306.072l-.019.004c-.783.052-1.725-.749-2.238-1.969-.586-1.395-.389-2.808.44-3.156.829-.348 1.977.499 2.563 1.895.034.081.056.16.084.241-.544 1.173-.697 2.272-.418 2.847-.037.02-.066.049-.106.066zm.423-.352c-.175-.375-.068-1.092.294-1.85.132.757.023 1.433-.294 1.85zm.544.249c.473-.706.597-1.824.341-3.046.483-.596 1.017-.908 1.343-.729.439.239.34 1.273-.225 2.309-.434.796-1.014 1.357-1.459 1.466z"></path>
    </symbol>
    <symbol xmlns="http://www.w3.org/2000/svg" viewBox="0 0 380.721 380.721" id="big-logo">
        <path d="M190.372 29.813c-88.673 0-160.546 71.873-160.546 160.547 0 65.89 39.73 122.438 96.504 147.173l2.092-40.525c0-32.242-23.83-21.912-23.83-44.465 0-12.641.395-38.98.395-58.755 0-52.697 22.377-103.673 27.874-115.048 5.53-11.363 18.537-23.76 18.677-11.828 0 17.312.738 218.618.738 218.618h-.035l2.463 61.241c11.497 2.626 23.395 4.125 35.669 4.125 6.728 0 13.304-.546 19.822-1.349l5.31-102.906c-13.106-2.869-24.283-11.212-31.295-21.68-8.685-13.014 6.675-128.067 6.675-128.067h10.004v107.978h9.922V96.894h10.84v107.978h9.889V96.894h11.258v107.978h9.911V96.894h7.668s15.349 115.054 6.669 128.067c-6.947 10.363-18.009 18.682-30.952 21.633-.232.07-.441.163-.441.163l5.02 95.993c63.995-21.11 110.249-81.307 110.249-152.39-.015-88.673-71.888-160.547-160.55-160.547z"></path>
        <path d="M190.372 0C85.415 0 0 85.397 0 190.36 0 295.3 85.415 380.721 190.372 380.721c104.952 0 190.35-85.421 190.35-190.361C380.721 85.397 295.324 0 190.372 0zm0 366.523c-97.144 0-176.18-79.03-176.18-176.163 0-97.144 79.036-176.18 176.18-176.18 97.133 0 176.175 79.036 176.175 176.18-.001 97.133-79.043 176.163-176.175 176.163z"></path>
    </symbol>
</svg>